<svg xmlns="http://www.w3.org/2000/svg" xmlns:xlink="http://www.w3.org/1999/xlink" width="105" zoomAndPan="magnify" viewBox="0 0 78.75 30.000001" height="40" preserveAspectRatio="xMidYMid meet" version="1.0"><defs><g/><clipPath id="5d79f5f234"><path d="M 1.148438 0 L 77.359375 0 L 77.359375 0.445312 L 1.148438 0.445312 Z M 76.902344 0.445312 L 77.359375 0.445312 L 77.359375 28.578125 L 76.902344 28.578125 Z M 1.148438 0.445312 L 1.59375 0.445312 L 1.59375 28.578125 L 1.148438 28.578125 Z M 1.148438 28.578125 L 77.359375 28.578125 L 77.359375 29.03125 L 1.148438 29.03125 Z M 1.148438 28.578125 " clip-rule="nonzero"/></clipPath></defs><g clip-path="url(#5d79f5f234)"><path fill="#3e3430" d="M 1.148438 0 L 77.359375 0 L 77.359375 29.03125 L 1.148438 29.03125 Z M 1.148438 0 " fill-opacity="1" fill-rule="nonzero"/></g><g fill="#3e3430" fill-opacity="1"><g transform="translate(20.025472, 22.217847)"><g><path d="M 2.078125 -2.0625 C 2.109375 -2.0625 2.132812 -2.050781 2.15625 -2.03125 C 2.175781 -2.007812 2.1875 -1.976562 2.1875 -1.9375 L 2.1875 -0.109375 C 2.1875 -0.0664062 2.175781 -0.0351562 2.15625 -0.015625 C 2.132812 0.00390625 2.109375 0.015625 2.078125 0.015625 C 2.046875 0.015625 2.019531 0.00390625 2 -0.015625 C 1.976562 -0.0351562 1.96875 -0.0664062 1.96875 -0.109375 L 1.96875 -1.59375 L 1.34375 -0.375 C 1.3125 -0.320312 1.269531 -0.296875 1.21875 -0.296875 C 1.164062 -0.296875 1.128906 -0.320312 1.109375 -0.375 L 0.46875 -1.578125 L 0.46875 -0.109375 C 0.46875 -0.0664062 0.457031 -0.0351562 0.4375 -0.015625 C 0.425781 0.00390625 0.398438 0.015625 0.359375 0.015625 C 0.328125 0.015625 0.300781 0.00390625 0.28125 -0.015625 C 0.257812 -0.0351562 0.25 -0.0664062 0.25 -0.109375 L 0.25 -1.9375 C 0.25 -1.976562 0.257812 -2.007812 0.28125 -2.03125 C 0.300781 -2.050781 0.332031 -2.0625 0.375 -2.0625 C 0.414062 -2.0625 0.453125 -2.035156 0.484375 -1.984375 L 1.21875 -0.5625 L 1.953125 -1.984375 C 1.972656 -2.015625 1.988281 -2.035156 2 -2.046875 C 2.019531 -2.054688 2.046875 -2.0625 2.078125 -2.0625 Z M 2.078125 -2.0625 "/></g></g></g><g fill="#3e3430" fill-opacity="1"><g transform="translate(22.472887, 22.217847)"><g><path d="M 2.015625 -0.140625 C 2.023438 -0.117188 2.03125 -0.101562 2.03125 -0.09375 C 2.03125 -0.0625 2.019531 -0.0351562 2 -0.015625 C 1.976562 0.00390625 1.953125 0.015625 1.921875 0.015625 C 1.867188 0.015625 1.832031 -0.0078125 1.8125 -0.0625 L 1.609375 -0.53125 L 0.515625 -0.53125 L 0.296875 -0.0625 C 0.273438 -0.0078125 0.242188 0.015625 0.203125 0.015625 C 0.171875 0.015625 0.140625 0.00390625 0.109375 -0.015625 C 0.0859375 -0.0351562 0.078125 -0.0625 0.078125 -0.09375 C 0.078125 -0.101562 0.0820312 -0.117188 0.09375 -0.140625 L 0.921875 -1.984375 C 0.929688 -2.015625 0.945312 -2.035156 0.96875 -2.046875 C 1 -2.054688 1.03125 -2.0625 1.0625 -2.0625 C 1.082031 -2.0625 1.101562 -2.050781 1.125 -2.03125 C 1.15625 -2.019531 1.175781 -2.003906 1.1875 -1.984375 Z M 0.59375 -0.71875 L 1.515625 -0.71875 L 1.0625 -1.765625 Z M 0.59375 -0.71875 "/></g></g></g><g fill="#3e3430" fill-opacity="1"><g transform="translate(24.588546, 22.217847)"><g><path d="M 1.71875 -0.1875 C 1.75 -0.15625 1.765625 -0.125 1.765625 -0.09375 C 1.765625 -0.0703125 1.753906 -0.046875 1.734375 -0.015625 C 1.710938 0.00390625 1.6875 0.015625 1.65625 0.015625 C 1.632812 0.015625 1.609375 0.00390625 1.578125 -0.015625 L 0.484375 -0.96875 L 0.484375 -0.109375 C 0.484375 -0.0664062 0.472656 -0.0351562 0.453125 -0.015625 C 0.429688 0.00390625 0.40625 0.015625 0.375 0.015625 C 0.332031 0.015625 0.300781 0.00390625 0.28125 -0.015625 C 0.257812 -0.0351562 0.25 -0.0664062 0.25 -0.109375 L 0.25 -1.9375 C 0.25 -1.976562 0.257812 -2.007812 0.28125 -2.03125 C 0.300781 -2.050781 0.332031 -2.0625 0.375 -2.0625 C 0.40625 -2.0625 0.429688 -2.050781 0.453125 -2.03125 C 0.472656 -2.007812 0.484375 -1.976562 0.484375 -1.9375 L 0.484375 -1.109375 L 1.53125 -2.03125 C 1.550781 -2.050781 1.578125 -2.0625 1.609375 -2.0625 C 1.628906 -2.0625 1.648438 -2.050781 1.671875 -2.03125 C 1.703125 -2.007812 1.71875 -1.984375 1.71875 -1.953125 C 1.71875 -1.921875 1.703125 -1.894531 1.671875 -1.875 L 0.734375 -1.046875 Z M 1.71875 -0.1875 "/></g></g></g><g fill="#3e3430" fill-opacity="1"><g transform="translate(26.416105, 22.217847)"><g><path d="M 0.375 0.015625 C 0.332031 0.015625 0.300781 0.00390625 0.28125 -0.015625 C 0.257812 -0.0351562 0.25 -0.0664062 0.25 -0.109375 L 0.25 -1.9375 C 0.25 -1.976562 0.257812 -2.007812 0.28125 -2.03125 C 0.300781 -2.050781 0.332031 -2.0625 0.375 -2.0625 C 0.40625 -2.0625 0.429688 -2.050781 0.453125 -2.03125 C 0.472656 -2.007812 0.484375 -1.976562 0.484375 -1.9375 L 0.484375 -0.109375 C 0.484375 -0.0664062 0.472656 -0.0351562 0.453125 -0.015625 C 0.429688 0.00390625 0.40625 0.015625 0.375 0.015625 Z M 0.375 0.015625 "/></g></g></g><g fill="#3e3430" fill-opacity="1"><g transform="translate(27.161096, 22.217847)"><g><path d="M 1.78125 -2.0625 C 1.820312 -2.0625 1.847656 -2.050781 1.859375 -2.03125 C 1.878906 -2.007812 1.890625 -1.976562 1.890625 -1.9375 L 1.890625 -0.109375 C 1.890625 -0.0664062 1.878906 -0.0351562 1.859375 -0.015625 C 1.835938 0.00390625 1.8125 0.015625 1.78125 0.015625 C 1.738281 0.015625 1.707031 0 1.6875 -0.03125 L 0.484375 -1.640625 L 0.484375 -0.109375 C 0.484375 -0.0664062 0.472656 -0.0351562 0.453125 -0.015625 C 0.429688 0.00390625 0.398438 0.015625 0.359375 0.015625 C 0.328125 0.015625 0.300781 0.00390625 0.28125 -0.015625 C 0.257812 -0.0351562 0.25 -0.0664062 0.25 -0.109375 L 0.25 -1.9375 C 0.25 -1.976562 0.257812 -2.007812 0.28125 -2.03125 C 0.300781 -2.050781 0.332031 -2.0625 0.375 -2.0625 C 0.40625 -2.0625 0.4375 -2.046875 0.46875 -2.015625 L 1.671875 -0.40625 L 1.671875 -1.9375 C 1.671875 -1.976562 1.679688 -2.007812 1.703125 -2.03125 C 1.722656 -2.050781 1.75 -2.0625 1.78125 -2.0625 Z M 1.78125 -2.0625 "/></g></g></g><g fill="#3e3430" fill-opacity="1"><g transform="translate(29.311676, 22.217847)"><g><path d="M 1.78125 -1.0625 C 1.800781 -1.0625 1.820312 -1.050781 1.84375 -1.03125 C 1.863281 -1.019531 1.875 -1 1.875 -0.96875 L 1.875 -0.25 C 1.875 -0.195312 1.863281 -0.160156 1.84375 -0.140625 C 1.832031 -0.117188 1.804688 -0.0976562 1.765625 -0.078125 C 1.691406 -0.046875 1.597656 -0.0195312 1.484375 0 C 1.378906 0.0078125 1.269531 0.015625 1.15625 0.015625 C 0.957031 0.015625 0.78125 -0.0234375 0.625 -0.109375 C 0.476562 -0.191406 0.363281 -0.3125 0.28125 -0.46875 C 0.207031 -0.625 0.171875 -0.8125 0.171875 -1.03125 C 0.171875 -1.238281 0.207031 -1.421875 0.28125 -1.578125 C 0.363281 -1.734375 0.476562 -1.851562 0.625 -1.9375 C 0.769531 -2.03125 0.941406 -2.078125 1.140625 -2.078125 C 1.273438 -2.078125 1.398438 -2.054688 1.515625 -2.015625 C 1.628906 -1.972656 1.726562 -1.910156 1.8125 -1.828125 C 1.84375 -1.796875 1.859375 -1.765625 1.859375 -1.734375 C 1.859375 -1.703125 1.847656 -1.675781 1.828125 -1.65625 C 1.816406 -1.632812 1.800781 -1.625 1.78125 -1.625 C 1.757812 -1.625 1.734375 -1.632812 1.703125 -1.65625 C 1.597656 -1.738281 1.503906 -1.796875 1.421875 -1.828125 C 1.335938 -1.859375 1.242188 -1.875 1.140625 -1.875 C 0.910156 -1.875 0.734375 -1.800781 0.609375 -1.65625 C 0.484375 -1.507812 0.421875 -1.300781 0.421875 -1.03125 C 0.421875 -0.75 0.484375 -0.535156 0.609375 -0.390625 C 0.734375 -0.242188 0.921875 -0.171875 1.171875 -0.171875 C 1.347656 -0.171875 1.507812 -0.203125 1.65625 -0.265625 L 1.65625 -0.875 L 1.234375 -0.875 C 1.203125 -0.875 1.175781 -0.882812 1.15625 -0.90625 C 1.132812 -0.925781 1.125 -0.945312 1.125 -0.96875 C 1.125 -1 1.132812 -1.019531 1.15625 -1.03125 C 1.175781 -1.050781 1.203125 -1.0625 1.234375 -1.0625 Z M 1.78125 -1.0625 "/></g></g></g><g fill="#3e3430" fill-opacity="1"><g transform="translate(31.418607, 22.217847)"><g/></g></g><g fill="#3e3430" fill-opacity="1"><g transform="translate(32.169419, 22.217847)"><g><path d="M 0.375 0 C 0.332031 0 0.300781 -0.0078125 0.28125 -0.03125 C 0.257812 -0.0507812 0.25 -0.078125 0.25 -0.109375 L 0.25 -1.9375 C 0.25 -1.96875 0.257812 -1.992188 0.28125 -2.015625 C 0.300781 -2.035156 0.332031 -2.046875 0.375 -2.046875 L 0.9375 -2.046875 C 1.269531 -2.046875 1.523438 -1.957031 1.703125 -1.78125 C 1.878906 -1.601562 1.96875 -1.351562 1.96875 -1.03125 C 1.96875 -0.695312 1.878906 -0.441406 1.703125 -0.265625 C 1.523438 -0.0859375 1.269531 0 0.9375 0 Z M 0.921875 -0.203125 C 1.453125 -0.203125 1.71875 -0.476562 1.71875 -1.03125 C 1.71875 -1.570312 1.453125 -1.84375 0.921875 -1.84375 L 0.484375 -1.84375 L 0.484375 -0.203125 Z M 0.921875 -0.203125 "/></g></g></g><g fill="#3e3430" fill-opacity="1"><g transform="translate(34.319999, 22.217847)"><g><path d="M 0.375 0 C 0.332031 0 0.300781 -0.0078125 0.28125 -0.03125 C 0.257812 -0.0507812 0.25 -0.078125 0.25 -0.109375 L 0.25 -1.9375 C 0.25 -1.96875 0.257812 -1.992188 0.28125 -2.015625 C 0.300781 -2.035156 0.332031 -2.046875 0.375 -2.046875 L 1.46875 -2.046875 C 1.5 -2.046875 1.523438 -2.035156 1.546875 -2.015625 C 1.566406 -2.003906 1.578125 -1.984375 1.578125 -1.953125 C 1.578125 -1.921875 1.566406 -1.894531 1.546875 -1.875 C 1.523438 -1.851562 1.5 -1.84375 1.46875 -1.84375 L 0.484375 -1.84375 L 0.484375 -1.140625 L 1.40625 -1.140625 C 1.4375 -1.140625 1.460938 -1.128906 1.484375 -1.109375 C 1.503906 -1.097656 1.515625 -1.078125 1.515625 -1.046875 C 1.515625 -1.015625 1.503906 -0.988281 1.484375 -0.96875 C 1.460938 -0.945312 1.4375 -0.9375 1.40625 -0.9375 L 0.484375 -0.9375 L 0.484375 -0.203125 L 1.46875 -0.203125 C 1.5 -0.203125 1.523438 -0.191406 1.546875 -0.171875 C 1.566406 -0.148438 1.578125 -0.125 1.578125 -0.09375 C 1.578125 -0.0625 1.566406 -0.0351562 1.546875 -0.015625 C 1.523438 -0.00390625 1.5 0 1.46875 0 Z M 0.375 0 "/></g></g></g><g fill="#3e3430" fill-opacity="1"><g transform="translate(36.013693, 22.217847)"><g><path d="M 1.125 0.015625 C 0.925781 0.015625 0.753906 -0.0234375 0.609375 -0.109375 C 0.472656 -0.191406 0.363281 -0.3125 0.28125 -0.46875 C 0.207031 -0.625 0.171875 -0.8125 0.171875 -1.03125 C 0.171875 -1.238281 0.207031 -1.421875 0.28125 -1.578125 C 0.363281 -1.734375 0.472656 -1.851562 0.609375 -1.9375 C 0.753906 -2.03125 0.925781 -2.078125 1.125 -2.078125 C 1.25 -2.078125 1.367188 -2.054688 1.484375 -2.015625 C 1.597656 -1.972656 1.703125 -1.910156 1.796875 -1.828125 C 1.828125 -1.796875 1.84375 -1.765625 1.84375 -1.734375 C 1.84375 -1.703125 1.832031 -1.675781 1.8125 -1.65625 C 1.800781 -1.632812 1.785156 -1.625 1.765625 -1.625 C 1.734375 -1.625 1.703125 -1.632812 1.671875 -1.65625 C 1.578125 -1.738281 1.488281 -1.796875 1.40625 -1.828125 C 1.320312 -1.859375 1.226562 -1.875 1.125 -1.875 C 0.90625 -1.875 0.734375 -1.800781 0.609375 -1.65625 C 0.484375 -1.507812 0.421875 -1.300781 0.421875 -1.03125 C 0.421875 -0.757812 0.484375 -0.550781 0.609375 -0.40625 C 0.734375 -0.257812 0.90625 -0.1875 1.125 -0.1875 C 1.226562 -0.1875 1.320312 -0.195312 1.40625 -0.21875 C 1.488281 -0.25 1.578125 -0.304688 1.671875 -0.390625 C 1.703125 -0.410156 1.734375 -0.421875 1.765625 -0.421875 C 1.785156 -0.421875 1.800781 -0.410156 1.8125 -0.390625 C 1.832031 -0.367188 1.84375 -0.34375 1.84375 -0.3125 C 1.84375 -0.28125 1.828125 -0.25 1.796875 -0.21875 C 1.703125 -0.144531 1.597656 -0.0859375 1.484375 -0.046875 C 1.367188 -0.00390625 1.25 0.015625 1.125 0.015625 Z M 1.125 0.015625 "/></g></g></g><g fill="#3e3430" fill-opacity="1"><g transform="translate(37.983846, 22.217847)"><g><path d="M 1.109375 0.015625 C 0.921875 0.015625 0.753906 -0.0234375 0.609375 -0.109375 C 0.472656 -0.191406 0.363281 -0.3125 0.28125 -0.46875 C 0.207031 -0.625 0.171875 -0.804688 0.171875 -1.015625 C 0.171875 -1.234375 0.207031 -1.421875 0.28125 -1.578125 C 0.363281 -1.734375 0.472656 -1.851562 0.609375 -1.9375 C 0.753906 -2.03125 0.921875 -2.078125 1.109375 -2.078125 C 1.296875 -2.078125 1.457031 -2.03125 1.59375 -1.9375 C 1.738281 -1.851562 1.847656 -1.734375 1.921875 -1.578125 C 2.003906 -1.421875 2.046875 -1.238281 2.046875 -1.03125 C 2.046875 -0.8125 2.003906 -0.625 1.921875 -0.46875 C 1.847656 -0.3125 1.738281 -0.191406 1.59375 -0.109375 C 1.457031 -0.0234375 1.296875 0.015625 1.109375 0.015625 Z M 1.109375 -0.1875 C 1.328125 -0.1875 1.492188 -0.257812 1.609375 -0.40625 C 1.734375 -0.550781 1.796875 -0.757812 1.796875 -1.03125 C 1.796875 -1.300781 1.734375 -1.507812 1.609375 -1.65625 C 1.492188 -1.800781 1.328125 -1.875 1.109375 -1.875 C 0.890625 -1.875 0.71875 -1.800781 0.59375 -1.65625 C 0.476562 -1.507812 0.421875 -1.300781 0.421875 -1.03125 C 0.421875 -0.757812 0.476562 -0.550781 0.59375 -0.40625 C 0.71875 -0.257812 0.890625 -0.1875 1.109375 -0.1875 Z M 1.109375 -0.1875 "/></g></g></g><g fill="#3e3430" fill-opacity="1"><g transform="translate(40.207179, 22.217847)"><g><path d="M 1.8125 -0.140625 C 1.832031 -0.117188 1.84375 -0.0976562 1.84375 -0.078125 C 1.84375 -0.046875 1.828125 -0.0195312 1.796875 0 C 1.773438 0.0078125 1.75 0.015625 1.71875 0.015625 C 1.675781 0.015625 1.644531 -0.00390625 1.625 -0.046875 L 1.234375 -0.65625 C 1.179688 -0.738281 1.128906 -0.789062 1.078125 -0.8125 C 1.023438 -0.84375 0.953125 -0.859375 0.859375 -0.859375 L 0.484375 -0.859375 L 0.484375 -0.109375 C 0.484375 -0.0664062 0.472656 -0.0351562 0.453125 -0.015625 C 0.429688 0.00390625 0.40625 0.015625 0.375 0.015625 C 0.332031 0.015625 0.300781 0.00390625 0.28125 -0.015625 C 0.257812 -0.0351562 0.25 -0.0664062 0.25 -0.109375 L 0.25 -1.9375 C 0.25 -1.96875 0.257812 -1.992188 0.28125 -2.015625 C 0.300781 -2.035156 0.332031 -2.046875 0.375 -2.046875 L 1.09375 -2.046875 C 1.320312 -2.046875 1.492188 -1.992188 1.609375 -1.890625 C 1.722656 -1.796875 1.78125 -1.65625 1.78125 -1.46875 C 1.78125 -1.300781 1.734375 -1.164062 1.640625 -1.0625 C 1.546875 -0.96875 1.410156 -0.910156 1.234375 -0.890625 C 1.285156 -0.878906 1.328125 -0.851562 1.359375 -0.8125 C 1.398438 -0.78125 1.441406 -0.734375 1.484375 -0.671875 Z M 1.078125 -1.0625 C 1.234375 -1.0625 1.347656 -1.09375 1.421875 -1.15625 C 1.503906 -1.226562 1.546875 -1.332031 1.546875 -1.46875 C 1.546875 -1.59375 1.503906 -1.6875 1.421875 -1.75 C 1.347656 -1.8125 1.234375 -1.84375 1.078125 -1.84375 L 0.484375 -1.84375 L 0.484375 -1.0625 Z M 1.078125 -1.0625 "/></g></g></g><g fill="#3e3430" fill-opacity="1"><g transform="translate(42.203523, 22.217847)"><g/></g></g><g fill="#3e3430" fill-opacity="1"><g transform="translate(42.954336, 22.217847)"><g><path d="M 0.375 0.015625 C 0.332031 0.015625 0.300781 0.00390625 0.28125 -0.015625 C 0.257812 -0.0351562 0.25 -0.0664062 0.25 -0.109375 L 0.25 -1.9375 C 0.25 -1.96875 0.257812 -1.992188 0.28125 -2.015625 C 0.300781 -2.035156 0.332031 -2.046875 0.375 -2.046875 L 1.4375 -2.046875 C 1.46875 -2.046875 1.492188 -2.035156 1.515625 -2.015625 C 1.535156 -2.003906 1.546875 -1.984375 1.546875 -1.953125 C 1.546875 -1.921875 1.535156 -1.894531 1.515625 -1.875 C 1.492188 -1.851562 1.46875 -1.84375 1.4375 -1.84375 L 0.484375 -1.84375 L 0.484375 -1.140625 L 1.375 -1.140625 C 1.40625 -1.140625 1.429688 -1.128906 1.453125 -1.109375 C 1.472656 -1.097656 1.484375 -1.078125 1.484375 -1.046875 C 1.484375 -1.015625 1.472656 -0.988281 1.453125 -0.96875 C 1.429688 -0.945312 1.40625 -0.9375 1.375 -0.9375 L 0.484375 -0.9375 L 0.484375 -0.109375 C 0.484375 -0.0664062 0.472656 -0.0351562 0.453125 -0.015625 C 0.429688 0.00390625 0.40625 0.015625 0.375 0.015625 Z M 0.375 0.015625 "/></g></g></g><g fill="#3e3430" fill-opacity="1"><g transform="translate(44.575276, 22.217847)"><g><path d="M 1.109375 0.015625 C 0.921875 0.015625 0.753906 -0.0234375 0.609375 -0.109375 C 0.472656 -0.191406 0.363281 -0.3125 0.28125 -0.46875 C 0.207031 -0.625 0.171875 -0.804688 0.171875 -1.015625 C 0.171875 -1.234375 0.207031 -1.421875 0.28125 -1.578125 C 0.363281 -1.734375 0.472656 -1.851562 0.609375 -1.9375 C 0.753906 -2.03125 0.921875 -2.078125 1.109375 -2.078125 C 1.296875 -2.078125 1.457031 -2.03125 1.59375 -1.9375 C 1.738281 -1.851562 1.847656 -1.734375 1.921875 -1.578125 C 2.003906 -1.421875 2.046875 -1.238281 2.046875 -1.03125 C 2.046875 -0.8125 2.003906 -0.625 1.921875 -0.46875 C 1.847656 -0.3125 1.738281 -0.191406 1.59375 -0.109375 C 1.457031 -0.0234375 1.296875 0.015625 1.109375 0.015625 Z M 1.109375 -0.1875 C 1.328125 -0.1875 1.492188 -0.257812 1.609375 -0.40625 C 1.734375 -0.550781 1.796875 -0.757812 1.796875 -1.03125 C 1.796875 -1.300781 1.734375 -1.507812 1.609375 -1.65625 C 1.492188 -1.800781 1.328125 -1.875 1.109375 -1.875 C 0.890625 -1.875 0.71875 -1.800781 0.59375 -1.65625 C 0.476562 -1.507812 0.421875 -1.300781 0.421875 -1.03125 C 0.421875 -0.757812 0.476562 -0.550781 0.59375 -0.40625 C 0.71875 -0.257812 0.890625 -0.1875 1.109375 -0.1875 Z M 1.109375 -0.1875 "/></g></g></g><g fill="#3e3430" fill-opacity="1"><g transform="translate(46.798609, 22.217847)"><g><path d="M 1.8125 -0.140625 C 1.832031 -0.117188 1.84375 -0.0976562 1.84375 -0.078125 C 1.84375 -0.046875 1.828125 -0.0195312 1.796875 0 C 1.773438 0.0078125 1.75 0.015625 1.71875 0.015625 C 1.675781 0.015625 1.644531 -0.00390625 1.625 -0.046875 L 1.234375 -0.65625 C 1.179688 -0.738281 1.128906 -0.789062 1.078125 -0.8125 C 1.023438 -0.84375 0.953125 -0.859375 0.859375 -0.859375 L 0.484375 -0.859375 L 0.484375 -0.109375 C 0.484375 -0.0664062 0.472656 -0.0351562 0.453125 -0.015625 C 0.429688 0.00390625 0.40625 0.015625 0.375 0.015625 C 0.332031 0.015625 0.300781 0.00390625 0.28125 -0.015625 C 0.257812 -0.0351562 0.25 -0.0664062 0.25 -0.109375 L 0.25 -1.9375 C 0.25 -1.96875 0.257812 -1.992188 0.28125 -2.015625 C 0.300781 -2.035156 0.332031 -2.046875 0.375 -2.046875 L 1.09375 -2.046875 C 1.320312 -2.046875 1.492188 -1.992188 1.609375 -1.890625 C 1.722656 -1.796875 1.78125 -1.65625 1.78125 -1.46875 C 1.78125 -1.300781 1.734375 -1.164062 1.640625 -1.0625 C 1.546875 -0.96875 1.410156 -0.910156 1.234375 -0.890625 C 1.285156 -0.878906 1.328125 -0.851562 1.359375 -0.8125 C 1.398438 -0.78125 1.441406 -0.734375 1.484375 -0.671875 Z M 1.078125 -1.0625 C 1.234375 -1.0625 1.347656 -1.09375 1.421875 -1.15625 C 1.503906 -1.226562 1.546875 -1.332031 1.546875 -1.46875 C 1.546875 -1.59375 1.503906 -1.6875 1.421875 -1.75 C 1.347656 -1.8125 1.234375 -1.84375 1.078125 -1.84375 L 0.484375 -1.84375 L 0.484375 -1.0625 Z M 1.078125 -1.0625 "/></g></g></g><g fill="#3e3430" fill-opacity="1"><g transform="translate(48.794954, 22.217847)"><g/></g></g><g fill="#3e3430" fill-opacity="1"><g transform="translate(49.545766, 22.217847)"><g><path d="M 2.015625 -0.140625 C 2.023438 -0.117188 2.03125 -0.101562 2.03125 -0.09375 C 2.03125 -0.0625 2.019531 -0.0351562 2 -0.015625 C 1.976562 0.00390625 1.953125 0.015625 1.921875 0.015625 C 1.867188 0.015625 1.832031 -0.0078125 1.8125 -0.0625 L 1.609375 -0.53125 L 0.515625 -0.53125 L 0.296875 -0.0625 C 0.273438 -0.0078125 0.242188 0.015625 0.203125 0.015625 C 0.171875 0.015625 0.140625 0.00390625 0.109375 -0.015625 C 0.0859375 -0.0351562 0.078125 -0.0625 0.078125 -0.09375 C 0.078125 -0.101562 0.0820312 -0.117188 0.09375 -0.140625 L 0.921875 -1.984375 C 0.929688 -2.015625 0.945312 -2.035156 0.96875 -2.046875 C 1 -2.054688 1.03125 -2.0625 1.0625 -2.0625 C 1.082031 -2.0625 1.101562 -2.050781 1.125 -2.03125 C 1.15625 -2.019531 1.175781 -2.003906 1.1875 -1.984375 Z M 0.59375 -0.71875 L 1.515625 -0.71875 L 1.0625 -1.765625 Z M 0.59375 -0.71875 "/></g></g></g><g fill="#3e3430" fill-opacity="1"><g transform="translate(51.661425, 22.217847)"><g><path d="M 0.375 0 C 0.332031 0 0.300781 -0.0078125 0.28125 -0.03125 C 0.257812 -0.0507812 0.25 -0.078125 0.25 -0.109375 L 0.25 -1.9375 C 0.25 -1.976562 0.257812 -2.007812 0.28125 -2.03125 C 0.300781 -2.050781 0.332031 -2.0625 0.375 -2.0625 C 0.40625 -2.0625 0.429688 -2.050781 0.453125 -2.03125 C 0.472656 -2.007812 0.484375 -1.976562 0.484375 -1.9375 L 0.484375 -0.203125 L 1.4375 -0.203125 C 1.46875 -0.203125 1.492188 -0.191406 1.515625 -0.171875 C 1.535156 -0.160156 1.546875 -0.140625 1.546875 -0.109375 C 1.546875 -0.0664062 1.535156 -0.0351562 1.515625 -0.015625 C 1.492188 -0.00390625 1.46875 0 1.4375 0 Z M 0.375 0 "/></g></g></g><g fill="#3e3430" fill-opacity="1"><g transform="translate(53.232891, 22.217847)"><g><path d="M 0.375 0 C 0.332031 0 0.300781 -0.0078125 0.28125 -0.03125 C 0.257812 -0.0507812 0.25 -0.078125 0.25 -0.109375 L 0.25 -1.9375 C 0.25 -1.976562 0.257812 -2.007812 0.28125 -2.03125 C 0.300781 -2.050781 0.332031 -2.0625 0.375 -2.0625 C 0.40625 -2.0625 0.429688 -2.050781 0.453125 -2.03125 C 0.472656 -2.007812 0.484375 -1.976562 0.484375 -1.9375 L 0.484375 -0.203125 L 1.4375 -0.203125 C 1.46875 -0.203125 1.492188 -0.191406 1.515625 -0.171875 C 1.535156 -0.160156 1.546875 -0.140625 1.546875 -0.109375 C 1.546875 -0.0664062 1.535156 -0.0351562 1.515625 -0.015625 C 1.492188 -0.00390625 1.46875 0 1.4375 0 Z M 0.375 0 "/></g></g></g><g fill="#3e3430" fill-opacity="1"><g transform="translate(54.806512, 22.217847)"><g/></g></g><g fill="#3e3430" fill-opacity="1"><g transform="translate(4.378344, 12.356172)"><g><path d="M 12.890625 -11.625 C 11.085938 -11.601562 8.335938 -11.203125 5.976562 -10.640625 C 6 -10.734375 6.023438 -10.84375 6.046875 -10.929688 C 6.074219 -11.058594 5.988281 -11.179688 5.867188 -11.203125 C 5.734375 -11.242188 5.613281 -11.15625 5.589844 -11.035156 C 5.554688 -10.867188 5.519531 -10.699219 5.46875 -10.507812 C 3.480469 -10 1.203125 -9.203125 0.902344 -8.191406 C 0.808594 -7.902344 0.84375 -7.46875 1.46875 -7.035156 C 1.519531 -7 1.554688 -6.988281 1.601562 -6.988281 C 1.675781 -6.988281 1.746094 -7.023438 1.796875 -7.097656 C 1.867188 -7.191406 1.84375 -7.335938 1.734375 -7.410156 C 1.253906 -7.746094 1.3125 -7.976562 1.335938 -8.058594 C 1.542969 -8.722656 3.230469 -9.421875 5.347656 -10 C 5.121094 -9.035156 4.820312 -7.878906 4.507812 -6.6875 C 4.21875 -5.601562 3.929688 -4.46875 3.652344 -3.363281 C 2.085938 -2.941406 0.757812 -2.492188 0.445312 -2.191406 C 0.363281 -2.109375 0.347656 -1.964844 0.445312 -1.867188 C 0.480469 -1.820312 0.554688 -1.796875 0.613281 -1.796875 C 0.664062 -1.796875 0.722656 -1.820312 0.769531 -1.867188 C 0.941406 -2.023438 1.855469 -2.386719 3.519531 -2.84375 C 2.902344 -0.347656 2.398438 2 2.375 3.410156 C 2.363281 4.179688 2.554688 4.636719 2.953125 4.808594 C 3.058594 4.855469 3.167969 4.867188 3.289062 4.867188 C 4.289062 4.867188 5.867188 3.410156 7.664062 1.664062 C 7.796875 1.53125 7.929688 1.410156 8.035156 1.300781 L 8.242188 1.097656 C 8.289062 1.058594 8.335938 1 8.398438 0.953125 C 8.410156 0.976562 8.421875 0.988281 8.433594 1 C 8.542969 1.074219 8.6875 1.046875 8.757812 0.953125 C 9.230469 0.324219 9.410156 0.0859375 9.203125 -0.0976562 C 9.023438 -0.265625 8.808594 -0.0742188 8.578125 0.144531 C 8.398438 0.3125 8.167969 0.53125 7.914062 0.769531 L 7.722656 0.964844 C 7.601562 1.085938 7.46875 1.203125 7.335938 1.324219 C 6.132812 2.507812 3.890625 4.710938 3.132812 4.386719 C 2.878906 4.277344 2.832031 3.796875 2.84375 3.421875 C 2.867188 2.011719 3.398438 -0.445312 4.035156 -2.988281 C 4.3125 -3.058594 4.601562 -3.144531 4.914062 -3.21875 C 7 -3.746094 8.941406 -4.121094 9.421875 -4.097656 C 9.554688 -4.085938 9.664062 -4.179688 9.664062 -4.3125 C 9.675781 -4.445312 9.578125 -4.554688 9.445312 -4.554688 C 8.867188 -4.589844 6.386719 -4.085938 4.15625 -3.507812 C 4.421875 -4.542969 4.699219 -5.589844 4.953125 -6.566406 C 5.289062 -7.867188 5.613281 -9.109375 5.855469 -10.121094 C 8.230469 -10.722656 11.023438 -11.132812 12.902344 -11.15625 C 13.023438 -11.15625 13.132812 -11.265625 13.132812 -11.398438 C 13.132812 -11.519531 13.023438 -11.613281 12.890625 -11.625 Z M 12.890625 -11.625 "/></g></g></g><g fill="#3e3430" fill-opacity="1"><g transform="translate(14.591498, 12.356172)"><g><path d="M 4.84375 -2.6875 C 4.734375 -2.746094 4.589844 -2.710938 4.53125 -2.589844 C 4.242188 -2.097656 3.480469 -0.757812 3.046875 -0.808594 C 2.964844 -0.820312 2.722656 -0.941406 2.480469 -1.78125 C 2.3125 -2.375 2.085938 -2.929688 1.636719 -2.953125 C 1.3125 -2.976562 0.953125 -2.722656 0.398438 -1.6875 C 0.542969 -2.203125 0.699219 -2.722656 0.820312 -3.144531 C 0.867188 -3.300781 0.902344 -3.433594 0.941406 -3.566406 C 0.976562 -3.6875 0.902344 -3.820312 0.78125 -3.855469 C 0.664062 -3.890625 0.53125 -3.820312 0.492188 -3.6875 C 0.457031 -3.566406 0.421875 -3.421875 0.375 -3.277344 C 0.0585938 -2.203125 -0.410156 -0.578125 -0.53125 0.410156 C -0.542969 0.519531 -0.46875 0.625 -0.363281 0.652344 C -0.335938 0.664062 -0.324219 0.664062 -0.300781 0.664062 C -0.203125 0.664062 -0.121094 0.601562 -0.0859375 0.519531 C 1.046875 -2.300781 1.507812 -2.492188 1.613281 -2.492188 C 1.636719 -2.492188 1.808594 -2.445312 2.035156 -1.652344 C 2.277344 -0.820312 2.589844 -0.398438 3 -0.347656 C 3.613281 -0.277344 4.167969 -1.035156 4.929688 -2.363281 C 5 -2.480469 4.953125 -2.613281 4.84375 -2.6875 Z M 4.84375 -2.6875 "/></g></g></g><g fill="#3e3430" fill-opacity="1"><g transform="translate(18.891139, 12.356172)"><g><path d="M 5.519531 -2.664062 C 5.445312 -2.769531 5.300781 -2.796875 5.203125 -2.734375 C 4.363281 -2.191406 3.277344 -1.480469 2.15625 -0.566406 C 2.277344 -1.398438 2.398438 -2.277344 2.519531 -3.21875 C 2.53125 -3.335938 2.457031 -3.433594 2.363281 -3.46875 C 2.253906 -3.507812 2.132812 -3.457031 2.085938 -3.363281 C 1.878906 -3.023438 1.3125 -2.15625 0.84375 -1.53125 C 0.652344 -1.289062 0.542969 -1.191406 0.480469 -1.15625 C 0.363281 -1.542969 0.734375 -3.265625 1.492188 -3.941406 C 1.796875 -4.21875 2.074219 -4.21875 2.375 -3.953125 C 2.46875 -3.867188 2.613281 -3.867188 2.699219 -3.964844 C 2.78125 -4.058594 2.769531 -4.203125 2.6875 -4.289062 C 2.203125 -4.722656 1.769531 -4.652344 1.492188 -4.507812 C 0.519531 -4.023438 -0.0742188 -2.023438 0.0117188 -1.21875 C 0.0351562 -0.855469 0.203125 -0.722656 0.335938 -0.6875 C 0.664062 -0.601562 0.976562 -0.941406 1.203125 -1.253906 C 1.445312 -1.566406 1.699219 -1.929688 1.929688 -2.253906 C 1.832031 -1.492188 1.722656 -0.78125 1.613281 -0.109375 C 0.324219 1.011719 -0.964844 2.421875 -1.941406 4.203125 C -2.675781 5.53125 -2.914062 6.652344 -2.988281 7.347656 C -3.085938 8.265625 -2.953125 9.023438 -2.613281 9.433594 C -2.433594 9.664062 -2.203125 9.785156 -1.953125 9.785156 C -1.878906 9.785156 -1.796875 9.769531 -1.710938 9.746094 C -0.554688 9.421875 0.964844 6.675781 2.035156 0.132812 C 3.289062 -0.941406 4.519531 -1.734375 5.445312 -2.335938 C 5.554688 -2.410156 5.589844 -2.554688 5.519531 -2.664062 Z M -1.832031 9.300781 C -2 9.347656 -2.132812 9.300781 -2.253906 9.144531 C -2.710938 8.578125 -2.78125 6.6875 -1.542969 4.433594 C -0.699219 2.902344 0.386719 1.652344 1.480469 0.625 C 0.386719 6.941406 -1.058594 9.085938 -1.832031 9.300781 Z M -1.832031 9.300781 "/></g></g></g><g fill="#3e3430" fill-opacity="1"><g transform="translate(23.853194, 12.356172)"><g><path d="M 3.519531 -2.734375 C 3.410156 -2.808594 3.277344 -2.769531 3.203125 -2.664062 C 2.398438 -1.363281 1.046875 -0.132812 0.636719 -0.300781 C 0.589844 -0.324219 0.203125 -0.554688 0.734375 -2.589844 C 0.757812 -2.722656 0.6875 -2.84375 0.566406 -2.878906 C 0.433594 -2.902344 0.3125 -2.832031 0.277344 -2.710938 C -0.15625 -1.011719 -0.0976562 -0.109375 0.445312 0.121094 C 0.53125 0.15625 0.613281 0.167969 0.699219 0.167969 C 1.601562 0.167969 2.988281 -1.445312 3.601562 -2.421875 C 3.664062 -2.53125 3.625 -2.675781 3.519531 -2.734375 Z M 0.675781 -3.710938 C 1.289062 -3.675781 1.277344 -4.445312 0.78125 -4.277344 C 0.53125 -4.203125 0.203125 -3.734375 0.675781 -3.710938 Z M 0.675781 -3.710938 "/></g></g></g><g fill="#3e3430" fill-opacity="1"><g transform="translate(26.900283, 12.356172)"><g><path d="M 6.796875 -2.6875 C 6.699219 -2.769531 6.542969 -2.757812 6.457031 -2.664062 C 5.492188 -1.53125 4.84375 -1.242188 4.554688 -1.347656 C 4.300781 -1.445312 4.15625 -1.929688 4.167969 -2.6875 C 4.167969 -2.820312 4.179688 -3.144531 3.914062 -3.203125 C 3.613281 -3.277344 3.398438 -2.929688 2.757812 -1.589844 C 2.652344 -1.363281 2.554688 -1.15625 2.492188 -1.035156 C 2.421875 -0.902344 2.375 -0.832031 2.335938 -0.796875 C 2.277344 -0.914062 2.191406 -1.230469 2.203125 -1.699219 C 2.203125 -1.941406 2.203125 -2.144531 2.21875 -2.3125 C 2.230469 -2.84375 2.242188 -3.035156 2.023438 -3.121094 C 1.832031 -3.179688 1.699219 -3 1.664062 -2.941406 C 1.132812 -2.21875 0.664062 -1.480469 0.167969 -0.589844 C 0.363281 -1.421875 0.710938 -2.613281 1.15625 -3.613281 C 1.203125 -3.734375 1.15625 -3.878906 1.035156 -3.929688 C 0.914062 -3.976562 0.78125 -3.929688 0.722656 -3.808594 C 0.386719 -3.023438 0.046875 -2.023438 -0.203125 -1.035156 C -0.601562 0.554688 -0.445312 0.625 -0.300781 0.699219 C -0.265625 0.710938 -0.230469 0.722656 -0.191406 0.722656 C -0.0742188 0.722656 0.0351562 0.636719 0.132812 0.457031 C 0.710938 -0.652344 1.191406 -1.46875 1.746094 -2.277344 C 1.746094 -2.109375 1.734375 -1.914062 1.734375 -1.699219 C 1.734375 -1.324219 1.78125 -0.433594 2.230469 -0.3125 C 2.589844 -0.230469 2.820312 -0.675781 2.902344 -0.820312 C 2.976562 -0.953125 3.074219 -1.15625 3.179688 -1.386719 C 3.3125 -1.664062 3.53125 -2.121094 3.710938 -2.433594 C 3.734375 -1.589844 3.964844 -1.074219 4.398438 -0.914062 C 4.988281 -0.6875 5.796875 -1.179688 6.820312 -2.363281 C 6.902344 -2.457031 6.890625 -2.601562 6.796875 -2.6875 Z M 6.796875 -2.6875 "/></g></g></g><g fill="#3e3430" fill-opacity="1"><g transform="translate(33.175105, 12.356172)"><g><path d="M 5.035156 -2.675781 C 4.929688 -2.722656 4.785156 -2.675781 4.734375 -2.566406 C 3.820312 -0.699219 3.132812 -0.109375 2.808594 -0.167969 C 2.675781 -0.191406 2.242188 -0.445312 2.132812 -2.554688 C 2.132812 -2.652344 2.058594 -2.734375 1.976562 -2.757812 C 1.878906 -2.78125 1.769531 -2.757812 1.722656 -2.675781 C 1.652344 -2.589844 1.578125 -2.492188 1.507812 -2.386719 C 1.203125 -1.976562 0.808594 -1.421875 0.324219 -0.902344 C 0.253906 -0.820312 0.191406 -0.769531 0.15625 -0.746094 C 0.0742188 -1.167969 0.519531 -2.78125 1.230469 -3.289062 C 1.433594 -3.433594 1.710938 -3.542969 2.085938 -3.109375 C 2.167969 -3.011719 2.3125 -3 2.410156 -3.085938 C 2.507812 -3.15625 2.519531 -3.3125 2.445312 -3.410156 C 1.988281 -3.941406 1.554688 -3.929688 1.265625 -3.832031 C 0.335938 -3.507812 -0.289062 -1.722656 -0.3125 -0.902344 C -0.324219 -0.566406 -0.230469 -0.347656 -0.0351562 -0.277344 C 0.265625 -0.15625 0.566406 -0.480469 0.664062 -0.589844 C 1.074219 -1.035156 1.445312 -1.519531 1.710938 -1.890625 C 1.84375 -0.519531 2.167969 0.167969 2.710938 0.289062 C 2.757812 0.289062 2.808594 0.300781 2.855469 0.300781 C 3.675781 0.300781 4.554688 -1.132812 5.144531 -2.363281 C 5.203125 -2.480469 5.15625 -2.613281 5.035156 -2.675781 Z M 5.035156 -2.675781 "/></g></g></g><g fill="#3e3430" fill-opacity="1"><g transform="translate(37.6554, 12.356172)"><g/></g></g><g fill="#3e3430" fill-opacity="1"><g transform="translate(41.352853, 12.356172)"><g><path d="M 9.324219 -11.589844 C 8.265625 -12.242188 6.675781 -12.144531 5.097656 -11.398438 C 5.132812 -11.578125 5.167969 -11.757812 5.191406 -11.914062 C 5.21875 -12.035156 5.132812 -12.15625 5.011719 -12.179688 C 4.878906 -12.203125 4.757812 -12.121094 4.734375 -11.988281 C 4.699219 -11.734375 4.636719 -11.445312 4.578125 -11.121094 C 4.324219 -10.988281 4.074219 -10.820312 3.832031 -10.652344 C 1.890625 -9.253906 0.0585938 -6.675781 0.746094 -3.589844 C 0.769531 -3.46875 0.890625 -3.386719 1.023438 -3.421875 C 1.144531 -3.445312 1.230469 -3.566406 1.191406 -3.699219 C 0.554688 -6.554688 2.277344 -8.964844 4.097656 -10.265625 C 4.21875 -10.347656 4.335938 -10.433594 4.457031 -10.519531 C 4.230469 -9.347656 3.929688 -7.878906 3.601562 -6.265625 C 2.601562 -1.324219 2 1.746094 1.675781 3.675781 C 1.566406 3.519531 1.492188 3.3125 1.46875 3.058594 C 1.445312 2.929688 1.335938 2.84375 1.203125 2.855469 C 1.085938 2.867188 0.988281 2.988281 1 3.109375 C 1.058594 3.625 1.265625 4 1.578125 4.230469 C 1.179688 6.652344 1.3125 6.855469 1.554688 6.929688 C 1.578125 6.941406 1.613281 6.941406 1.636719 6.941406 C 1.867188 6.941406 2.023438 6.636719 2.277344 6.023438 C 2.324219 5.902344 2.277344 5.769531 2.15625 5.722656 C 2.035156 5.675781 1.902344 5.722656 1.855469 5.84375 C 1.832031 5.890625 1.820312 5.929688 1.808594 5.964844 C 1.84375 5.578125 1.914062 5.046875 2.011719 4.410156 C 2.109375 4.421875 2.203125 4.433594 2.3125 4.445312 C 2.324219 4.445312 2.335938 4.445312 2.335938 4.445312 C 3.578125 4.445312 5.410156 3.132812 7.011719 1.097656 C 8.914062 -1.300781 10.191406 -4.3125 10.640625 -7.347656 C 11.023438 -9.964844 10.132812 -11.097656 9.324219 -11.589844 Z M 10.179688 -7.421875 C 9.601562 -3.421875 7.722656 -0.542969 6.652344 0.820312 C 4.929688 3 3.242188 3.976562 2.335938 3.976562 C 2.335938 3.976562 2.324219 3.976562 2.324219 3.976562 C 2.242188 3.976562 2.167969 3.964844 2.097656 3.953125 C 2.554688 1.242188 3.410156 -3 4.058594 -6.167969 C 4.421875 -7.976562 4.757812 -9.601562 4.988281 -10.820312 C 6.519531 -11.640625 8.085938 -11.796875 9.085938 -11.191406 C 10.074219 -10.589844 10.457031 -9.289062 10.179688 -7.421875 Z M 10.179688 -7.421875 "/></g></g></g><g fill="#3e3430" fill-opacity="1"><g transform="translate(51.602134, 12.356172)"><g><path d="M 4.074219 -2.6875 C 3.964844 -2.757812 3.820312 -2.734375 3.746094 -2.625 C 2.84375 -1.363281 2.109375 -0.566406 1.386719 -0.046875 C 1.023438 0.203125 0.675781 0.253906 0.445312 0.0859375 C 0.300781 -0.0234375 -0.144531 -0.507812 0.375 -2.191406 C 1.542969 -3.15625 2.179688 -4.074219 2.011719 -4.554688 C 1.953125 -4.699219 1.808594 -4.796875 1.652344 -4.796875 C 1.167969 -4.785156 0.433594 -3.953125 -0.046875 -2.398438 C -0.636719 -0.480469 -0.15625 0.21875 0.179688 0.457031 C 0.347656 0.589844 0.542969 0.652344 0.757812 0.652344 C 1.035156 0.652344 1.347656 0.542969 1.652344 0.324219 C 2.421875 -0.230469 3.179688 -1.046875 4.121094 -2.363281 C 4.191406 -2.46875 4.167969 -2.613281 4.074219 -2.6875 Z M 1.554688 -4.289062 C 1.507812 -4.097656 1.300781 -3.710938 0.734375 -3.132812 C 1.046875 -3.832031 1.386719 -4.167969 1.554688 -4.289062 Z M 1.554688 -4.289062 "/></g></g></g><g fill="#3e3430" fill-opacity="1"><g transform="translate(55.106883, 12.356172)"><g><path d="M 3.976562 -2.734375 C 3.867188 -2.796875 3.722656 -2.769531 3.664062 -2.664062 C 2.84375 -1.421875 1.480469 0.652344 0.589844 0.457031 C 0.445312 0.421875 0.324219 0.324219 0.242188 0.167969 C 0 -0.265625 0.0351562 -1.132812 0.3125 -1.890625 C 0.613281 -2.699219 0.976562 -2.902344 1.046875 -2.890625 C 1.058594 -2.878906 1.132812 -2.722656 1.035156 -2.347656 C 1 -2.21875 1.074219 -2.097656 1.191406 -2.058594 C 1.324219 -2.035156 1.445312 -2.109375 1.480469 -2.230469 C 1.710938 -3.097656 1.3125 -3.289062 1.191406 -3.335938 C 0.746094 -3.46875 0.203125 -2.941406 -0.121094 -2.046875 C -0.398438 -1.300781 -0.519531 -0.242188 -0.15625 0.398438 C -0.0117188 0.675781 0.21875 0.84375 0.492188 0.902344 C 0.566406 0.925781 0.636719 0.925781 0.710938 0.925781 C 1.757812 0.925781 2.890625 -0.652344 4.046875 -2.410156 C 4.121094 -2.519531 4.085938 -2.664062 3.976562 -2.734375 Z M 3.976562 -2.734375 "/></g></g></g><g fill="#3e3430" fill-opacity="1"><g transform="translate(58.671847, 12.356172)"><g><path d="M 4.363281 -2.613281 C 4.253906 -2.699219 4.109375 -2.675781 4.035156 -2.578125 C 3.53125 -1.929688 2.699219 -1.386719 2.058594 -1.507812 C 2.074219 -1.589844 2.085938 -1.675781 2.085938 -1.757812 C 2.167969 -3.121094 1.746094 -3.398438 1.492188 -3.445312 C 1.203125 -3.507812 0.902344 -3.289062 0.757812 -2.929688 C 0.699219 -2.953125 0.625 -2.953125 0.566406 -2.902344 C 0.0859375 -2.601562 -0.3125 -1.832031 -0.0976562 -1 C 0.046875 -0.507812 0.386719 -0.191406 0.832031 -0.191406 C 1.253906 -0.191406 1.699219 -0.507812 1.929688 -1.058594 C 2.769531 -0.878906 3.78125 -1.507812 4.398438 -2.289062 C 4.480469 -2.398438 4.457031 -2.542969 4.363281 -2.613281 Z M 0.84375 -0.652344 C 0.832031 -0.652344 0.832031 -0.652344 0.832031 -0.652344 C 0.53125 -0.664062 0.398438 -0.953125 0.363281 -1.121094 C 0.242188 -1.53125 0.335938 -2.097656 0.675781 -2.410156 C 0.699219 -2 0.925781 -1.554688 1.507812 -1.242188 C 1.335938 -0.855469 1.046875 -0.652344 0.84375 -0.652344 Z M 1.625 -1.78125 C 1.613281 -1.757812 1.613281 -1.734375 1.613281 -1.710938 C 1.15625 -2.011719 1.085938 -2.398438 1.167969 -2.699219 C 1.230469 -2.890625 1.347656 -2.988281 1.410156 -2.988281 C 1.46875 -2.976562 1.675781 -2.746094 1.625 -1.78125 Z M 1.625 -1.78125 "/></g></g></g><g fill="#3e3430" fill-opacity="1"><g transform="translate(62.525866, 12.356172)"><g><path d="M 5.289062 -2.722656 C 5.167969 -2.78125 5.023438 -2.734375 4.976562 -2.613281 C 3.589844 0.300781 2.277344 1.796875 1.988281 1.746094 C 1.964844 1.734375 1.542969 1.324219 2.902344 -2.855469 C 2.941406 -2.964844 3.023438 -3.21875 2.832031 -3.347656 C 2.652344 -3.492188 2.445312 -3.363281 2.109375 -3.132812 C 1.746094 -2.902344 1.253906 -2.578125 0.867188 -2.625 C 2.097656 -4.746094 1.976562 -5.21875 1.699219 -5.398438 C 1.265625 -5.652344 0.636719 -4.914062 0.347656 -4.492188 C -0.242188 -3.578125 -0.230469 -2.746094 0.398438 -2.324219 C 1.035156 -1.878906 1.867188 -2.421875 2.363281 -2.746094 C 2.375 -2.757812 2.375 -2.757812 2.386719 -2.769531 C 1.914062 -1.289062 1.613281 -0.121094 1.507812 0.6875 C 1.375 1.578125 1.46875 2.046875 1.808594 2.179688 C 1.867188 2.191406 1.914062 2.203125 1.976562 2.203125 C 2.941406 2.203125 4.613281 -0.757812 5.398438 -2.410156 C 5.445312 -2.53125 5.398438 -2.675781 5.289062 -2.722656 Z M 0.421875 -3.554688 C 0.589844 -4.203125 1.15625 -4.808594 1.410156 -4.953125 C 1.386719 -4.757812 1.253906 -4.21875 0.480469 -2.878906 C 0.398438 -3.011719 0.335938 -3.21875 0.421875 -3.554688 Z M 0.421875 -3.554688 "/></g></g></g></svg>